<?xml version="1.0" encoding="UTF-8"?>
<svg width="141px" height="32px" viewBox="0 0 141 32" version="1.1" xmlns="http://www.w3.org/2000/svg" xmlns:xlink="http://www.w3.org/1999/xlink">
    <!-- Generator: Sketch 50 (54983) - http://www.bohemiancoding.com/sketch -->
    <title>Skip Primary - White</title>
    <desc>Created with Sketch.</desc>
    <defs>
        <polygon id="path-1" points="0 0.0444444444 54.7786371 0.0444444444 54.7786371 31.7264957 0 31.7264957"></polygon>
        <polygon id="path-3" points="0.0335316239 0.247822222 13.0425983 0.247822222 13.0425983 18.7848479 0.0335316239 18.7848479"></polygon>
    </defs>
    <g id="Symbols" stroke="none" stroke-width="1" fill="none" fill-rule="evenodd">
        <g id="Miscellaneous/Logo/Primary/White">
            <g id="Skip-Primary---White" transform="translate(0.564453, 0.000000)">
                <g id="Group-3" transform="translate(0.000000, 0.229197)">
                    <mask id="mask-2" fill="white">
                        <use xlink:href="#path-1"></use>
                    </mask>
                    <g id="Clip-2"></g>
                    <path d="M54.7457094,1.53312821 C54.817641,1.28834188 54.7703248,1.02358974 54.6174359,0.819282051 C54.4642735,0.614974359 54.2238632,0.494632479 53.9686838,0.494632479 L47.0468376,0.502017094 L38.5608205,29.2732991 L35.3362051,15.2942222 L45.2039658,1.81702564 C45.2753504,1.72923077 45.3185641,1.62803419 45.3483761,1.52300855 L45.5220513,0.932786325 C45.5838632,0.712615385 45.4183932,0.494358974 45.1900171,0.494358974 L38.1582222,0.494358974 L30.6097778,11.5510427 L33.8311111,1.53312821 C33.9030427,1.28806838 33.8557265,1.02358974 33.7028376,0.819282051 C33.5496752,0.614700855 33.3095385,0.494358974 33.053812,0.494358974 L26.0898462,0.494358974 L20.0683761,20.9532991 C20.2010256,17.4393162 17.4763761,14.6711795 15.8903248,12.9210256 C14.6054017,11.4911453 13.8300171,10.4780855 13.9689573,9.34905983 C14.1379829,7.97415385 15.232547,6.68512821 17.0188034,6.544 C18.751453,6.40697436 19.4975726,6.93811966 20.6000684,7.45504274 C20.7291624,7.51576068 20.8670085,7.55323077 21.0078632,7.55323077 C21.1197265,7.55323077 21.2321368,7.53271795 21.3382564,7.49032479 C21.5775726,7.39596581 21.7580855,7.20369231 21.8300171,6.96765812 L23.4510769,1.49292308 L22.3297094,0.971623932 C22.2788376,0.947008547 22.2238632,0.921846154 22.1656068,0.895316239 L22.112547,0.870700855 L22.112547,0.871521368 C21.3191111,0.519247863 19.8900513,0.0444444444 17.8967521,0.0444444444 C11.7956923,0.0444444444 6.24601709,4.41203419 5.33196581,9.78119658 C4.6914188,13.5394188 7.09907692,16.1902222 8.85688889,18.1260855 L9.01059829,18.2953846 C10.2804786,19.6574359 11.1617094,20.7158974 10.9541197,21.9431111 C10.6631111,23.663453 8.99145299,24.6453333 7.37832479,24.7763419 C5.60601709,24.9204786 4.4991453,24.4257094 3.11302564,23.8160684 C2.93223932,23.7364786 2.59747009,23.5742906 2.3105641,23.6678291 C2.03623932,23.7575385 1.82044444,23.9602051 1.74276923,24.2246838 L0.19774359,29.5134359 L0,30.189812 C0,30.189812 3.03562393,31.7266325 6.5474188,31.7266325 C11.745094,31.7266325 16.2404103,29.7295043 18.9073504,24.912 L17.3325128,30.2806154 C17.2611282,30.5254017 17.3089915,30.7901538 17.4618803,30.9944615 C17.6147692,31.1987692 17.854906,31.3188376 18.110359,31.3188376 L25.0726838,31.3188376 L26.8105299,25.4092308 L28.928,22.3574701 L30.560547,30.6673504 C30.6360342,31.0464274 30.9683419,31.3188376 31.3548034,31.3188376 L45.986735,31.3188376 L54.7457094,1.53312821 Z" id="Fill-1" fill="#FEFEFE" mask="url(#mask-2)"></path>
                </g>
                <path d="M67.809012,9.54275556 C67.7340718,10.9868581 67.1854222,12.836841 66.5432342,14.2689094 C65.6830632,16.1859009 64.8833368,17.6166017 62.6176274,17.8750632 L60.6467556,17.8627556 L63.7343453,7.3760547 L66.3315419,7.39301197 C66.7464479,7.39848205 67.0593368,7.53441368 67.2901744,7.76962735 C67.6963282,8.18316581 67.8489436,8.77010598 67.809012,9.54275556 M73.3603282,3.05304615 C72.0510632,1.60675556 70.209559,0.759439316 68.0352,0.731268376 L56.5083624,0.731268376 L56.0174222,2.36244786 C55.9720205,2.51396923 55.9944479,2.67752479 56.0795077,2.81126838 L56.4074393,3.32682393 C56.7285333,3.83143932 56.8124991,4.4512 56.6371829,5.02282393 L49.1538325,30.499747 C49.0788923,30.7437128 49.1234735,31.0087385 49.2736274,31.2152342 C49.4240547,31.4217299 49.6622769,31.5445333 49.9177299,31.5480889 L56.6204991,31.5480889 L58.7144479,24.4665162 L61.7404991,24.4793709 C69.0411487,24.5742769 72.7411145,19.4455248 74.3914393,13.8750632 C75.0667214,11.5964991 75.3864479,9.9614906 75.3763282,8.86774701 C75.3533538,6.42972991 74.7549265,4.59342222 73.3603282,3.05304615" id="Fill-4" fill="#FEFEFE"></path>
                <path d="M83.8739145,19.5107282 C83.745094,21.6599248 82.1117265,28.5645402 78.8414359,28.5645402 L77.760547,28.5645402 L81.2698803,16.6096684 L82.2468376,16.6096684 C83.1893333,16.6096684 83.9980855,17.4419419 83.8739145,19.5107282 M83.0908718,13.6273778 L78.5758632,13.6273778 L73.4326154,31.0375658 C73.3620513,31.2826256 73.5474872,31.527959 73.8032137,31.527959 L78.0529231,31.5465573 C84.8426667,31.5465573 87.2101197,23.0299077 87.424547,19.4571214 C87.6600342,15.5345231 85.474188,13.6273778 83.0908718,13.6273778" id="Fill-6" fill="#FEFEFE"></path>
                <path d="M92.6327248,1.42498462 C92.675665,1.27783932 92.5651692,1.13042051 92.4117333,1.13042051 L90.7616821,1.13042051 L89.5809641,5.18047179 L87.5928615,5.18047179 L88.6876991,1.42498462 C88.7306393,1.27756581 88.6201436,1.13042051 88.4669812,1.13042051 L86.8166564,1.13042051 L83.9640068,10.8792068 C83.9207932,11.0260786 84.0315624,11.1737709 84.1847248,11.1737709 L85.8347761,11.1737709 L87.0964513,6.83736068 L89.0845538,6.83736068 L87.9084855,10.8794803 C87.8655453,11.0266256 87.976041,11.1737709 88.1294769,11.1737709 L89.7798017,11.1737709 L92.6327248,1.42498462 Z" id="Fill-8" fill="#FEFEFE"></path>
                <path d="M98.5464615,1.12289915 L94.3169915,1.12289915 L94.2685812,1.28782222 L91.4640684,10.8716855 C91.4211282,11.0188308 91.5316239,11.1662496 91.6850598,11.1662496 L95.9123419,11.1662496 C95.9123419,11.1662496 96.3124786,9.80693333 96.3179487,9.78860855 C96.3677265,9.61848889 96.2498462,9.49486496 96.0966838,9.49486496 L93.8170256,9.49486496 L94.5929573,6.89001026 L96.6628376,6.89001026 L97.0722735,5.51428376 C97.1163077,5.36686496 97.0055385,5.21862564 96.8518291,5.21862564 L95.0745983,5.21862564 L95.7922735,2.79428376 L98.3703248,2.79428376 L98.7677265,1.41664274 C98.8101197,1.26977094 98.6996239,1.12289915 98.5464615,1.12289915" id="Fill-10" fill="#FEFEFE"></path>
                <path d="M85.2598701,2.79422906 L85.6496137,1.41658803 C85.6911863,1.26971624 85.5798701,1.12284444 85.4269812,1.12284444 L80.6288957,1.12284444 L80.2394256,2.50048547 C80.197853,2.64763077 80.3088957,2.79422906 80.4620581,2.79422906 L81.7248274,2.79422906 L79.3622974,10.8716308 C79.3196308,11.0187761 79.4312205,11.1661949 79.5846564,11.1661949 L81.2333402,11.1661949 L83.6913231,2.79422906 L85.2598701,2.79422906 Z" id="Fill-12" fill="#FEFEFE"></path>
                <path d="M94.6671863,13.6274325 L91.6887248,13.6274325 L86.5758359,31.0559453 C86.5052718,31.3007316 86.6909812,31.546612 86.9464342,31.546612 L89.9246222,31.546612 L95.0375111,14.1180991 C95.1080752,13.8730393 94.9226393,13.6274325 94.6671863,13.6274325" id="Fill-14" fill="#FEFEFE"></path>
                <path d="M119.019214,14.1180991 C119.091419,13.8730393 118.90735,13.6274325 118.651897,13.6274325 L115.671521,13.6274325 L113.557333,20.8539624 L110.010256,20.8539624 L111.980855,14.1178256 C112.052513,13.8727658 111.868444,13.6274325 111.613265,13.6274325 L108.632615,13.6274325 L103.514803,31.0559453 C103.442872,31.3007316 103.626667,31.546612 103.88212,31.546612 L106.862222,31.546612 L109.121641,23.8091761 L112.668444,23.8091761 L110.552342,31.0564923 C110.480957,31.3012786 110.664752,31.546612 110.919932,31.546612 L113.901128,31.546612 L119.019214,14.1180991 Z" id="Fill-16" fill="#FEFEFE"></path>
                <path d="M129.399549,13.6274325 L121.81719,13.6274325 L116.698831,31.0559453 C116.627173,31.3007316 116.810968,31.546612 117.066421,31.546612 L124.646591,31.546612 L125.368096,29.0536205 C125.438933,28.8088342 125.255138,28.5643214 125.000232,28.5643214 L120.909156,28.5643214 L122.298284,23.9166632 L125.034694,23.9166632 L125.624369,23.9166632 L125.909087,23.9166632 L126.652745,21.4269538 C126.726318,21.1816205 126.54225,20.9346462 126.285976,20.9346462 L123.16119,20.9346462 L124.446113,16.6097231 L129.046181,16.6097231 L129.767412,14.1167316 C129.83825,13.8719453 129.654455,13.6274325 129.399549,13.6274325" id="Fill-18" fill="#FEFEFE"></path>
                <path d="M99.6853333,18.4900103 C99.8652991,17.3615316 100.778803,16.4146598 102.023795,16.3405402 C102.835282,16.2921299 103.298051,16.4524034 103.983453,16.6895316 C104.304274,16.8005744 104.659556,16.6930872 104.752821,16.3687111 C104.767863,16.3170188 105.464752,13.9495658 105.464752,13.9495658 C105.464752,13.9495658 104.160137,13.3317197 102.530325,13.3317197 C99.3716239,13.3317197 96.1904957,15.6920615 95.6765812,18.9155829 C95.3341538,21.065053 96.7022222,22.6002325 97.682188,23.755241 C98.4556581,24.6419419 99.0795214,25.4211556 98.9208889,26.4150701 C98.6810256,27.9198906 97.5024957,28.5795829 96.370188,28.6747624 C95.5154872,28.7464205 94.9944615,28.6701128 94.0117607,28.2579419 C93.6542906,28.108335 93.3331966,28.2273094 93.229265,28.5924376 L92.4555214,31.2336684 C92.4555214,31.2336684 93.9417436,31.8687453 95.8904615,31.8687453 C99.3546667,31.8687453 102.371419,29.3207795 102.893812,26.0433778 C103.240615,23.8671043 101.885128,22.2509675 100.905436,21.0956855 C100.15959,20.2092581 99.535453,19.4303179 99.6853333,18.4900103" id="Fill-20" fill="#FEFEFE"></path>
                <g id="Group-24" transform="translate(126.905983, 13.083897)">
                    <mask id="mask-4" fill="white">
                        <use xlink:href="#path-3"></use>
                    </mask>
                    <g id="Clip-23"></g>
                    <path d="M7.26334359,5.40611282 C7.4430359,4.27763419 8.35681368,3.33076239 9.60153162,3.25664274 C10.4130188,3.20823248 10.875788,3.36850598 11.5614632,3.60563419 C11.8820103,3.71667692 12.2372923,3.60918974 12.3308308,3.28481368 C12.3456,3.23312137 13.0427624,0.865668376 13.0427624,0.865668376 C13.0427624,0.865668376 11.7378735,0.247822222 10.108335,0.247822222 C6.94963419,0.247822222 3.76823248,2.6081641 3.25459145,5.83168547 C2.9118906,7.98115556 4.28023248,9.51633504 5.25992479,10.6713436 C6.03339487,11.5580444 6.65753162,12.3372581 6.49889915,13.3311726 C6.25876239,14.8359932 5.08023248,15.4956855 3.94792479,15.590865 C3.09349744,15.6625231 2.57219829,15.5862154 1.58949744,15.1740444 C1.23230085,15.0244376 0.911206838,15.143412 0.807001709,15.5085402 L0.0335316239,18.1497709 C0.0335316239,18.1497709 1.51948034,18.7848479 3.46847179,18.7848479 C6.93267692,18.7848479 9.94942906,16.2368821 10.4715487,12.9594803 C10.8183521,10.7832068 9.46313846,9.16707009 8.48344615,8.01178803 C7.7376,7.12536068 7.11346325,6.34642051 7.26334359,5.40611282" id="Fill-22" fill="#FEFEFE" mask="url(#mask-4)"></path>
                </g>
            </g>
        </g>
    </g>
</svg>